<?xml version="1.0" encoding="UTF-8" standalone="no"?>
<svg
   xmlns:dc="http://purl.org/dc/elements/1.1/"
   xmlns:cc="http://creativecommons.org/ns#"
   xmlns:rdf="http://www.w3.org/1999/02/22-rdf-syntax-ns#"
   xmlns:svg="http://www.w3.org/2000/svg"
   xmlns="http://www.w3.org/2000/svg"
   xmlns:sodipodi="http://sodipodi.sourceforge.net/DTD/sodipodi-0.dtd"
   xmlns:inkscape="http://www.inkscape.org/namespaces/inkscape"
   id="Layer_1"
   xml:space="preserve"
   overflow="visible"
   height="192"
   viewBox="0 0 192 192"
   width="192"
   version="1.1"
   enable-background="new 0 0 192 192"
   inkscape:version="0.48.4 r9939"
   sodipodi:docname="Circle_sign_3di.svg"><defs
   id="defs14" /><sodipodi:namedview
   pagecolor="#ffffff"
   bordercolor="#666666"
   borderopacity="1"
   objecttolerance="10"
   gridtolerance="10"
   guidetolerance="10"
   inkscape:pageopacity="0"
   inkscape:pageshadow="2"
   inkscape:window-width="704"
   inkscape:window-height="480"
   id="namedview12"
   showgrid="false"
   inkscape:zoom="1.2291667"
   inkscape:cx="232.67797"
   inkscape:cy="96"
   inkscape:window-x="0"
   inkscape:window-y="0"
   inkscape:window-maximized="0"
   inkscape:current-layer="Layer_1" /><metadata
   id="metadata2934"><rdf:RDF><cc:Work
       rdf:about=""><dc:format>image/svg+xml</dc:format><dc:type
         rdf:resource="http://purl.org/dc/dcmitype/StillImage" /><dc:title></dc:title></cc:Work></rdf:RDF></metadata>
<g
   id="g2913">
	<path
   id="path2915"
   d="M0,12c0-6.6274,5.3726-12,12-12h168c6.627,0,12,5.3726,12,12v168c0,6.627-5.373,12-12,12h-168c-6.6274,0-12-5.373-12-12v-168z" />
	<path
   id="path2917"
   d="M96,96" />
</g>
<g
   id="g2919"
   fill="#FFF">
	<circle
   id="circle2921"
   cy="96"
   cx="96"
   r="92" />
	<path
   id="path2923"
   d="M96,96" />
</g>
<g
   style="font-size:371.68624878px"
   id="routenum"><path
     d="m 38.695023,132.08916 0,-71.856578 -6.649414,0 c -1.188685,1.266945 -2.404168,2.245588 -3.646453,2.93593 -1.242302,0.690481 -2.779531,1.213318 -4.611691,1.568512 l 0,5.576928 5.791425,0 0,61.775208 z"
     style="font-size:107.25px;text-align:center;text-anchor:middle;font-family:Roadgeek 2005 Series B"
     id="path2992" /><path
     d="m 85.792586,96.053621 c -4e-5,-0.638987 -4e-5,-1.291416 0,-1.957289 -4e-5,-0.665797 -4e-5,-1.371849 0,-2.118158 0.08867,-4.56067 -0.172167,-9.36964 -0.782518,-14.426926 -0.610429,-5.057177 -2.10264,-9.381543 -4.476639,-12.973112 -2.374067,-3.591433 -6.16219,-5.468944 -11.364379,-5.632537 -5.476318,0.223839 -9.419356,2.493271 -11.829126,6.808301 -2.409792,4.315162 -3.890086,9.333333 -4.440887,15.054527 -0.550813,5.721296 -0.775903,10.803022 -0.675269,15.245194 -6e-6,1.17977 -6e-6,2.466752 0,3.86095 -0.0907,4.460779 0.174107,9.231349 0.794434,14.311729 0.620313,5.08042 2.140329,9.44583 4.560053,13.09625 2.4197,3.65042 6.283295,5.56104 11.590795,5.73184 5.736448,-0.23237 9.754957,-2.53225 12.055539,-6.89966 2.300512,-4.36739 3.64178,-9.40807 4.023809,-15.12205 0.381952,-5.71395 0.563347,-10.70696 0.544188,-14.979059 z m -9.652376,0 c -3e-5,0.547449 -3e-5,1.275845 0,2.18519 -3e-5,0.909413 -3e-5,1.932739 0,3.069989 0.03109,2.94407 -0.102645,6.13637 -0.401191,9.57691 -0.298605,3.44058 -0.948717,6.41043 -1.950337,8.90957 -1.001675,2.49917 -2.541551,3.80866 -4.619632,3.92848 -2.322417,-0.15225 -4.029126,-1.65903 -5.120131,-4.52033 -1.09104,-2.86127 -1.788818,-6.16346 -2.093334,-9.90659 -0.304548,-3.74308 -0.438277,-7.0135 -0.401187,-9.811263 -1.5e-5,-1.51932 -1.5e-5,-2.663305 0,-3.431956 -1.5e-5,-0.379805 -1.5e-5,-0.853487 0,-1.421047 -1.5e-5,-0.567485 -1.5e-5,-1.202038 0,-1.90366 -0.03709,-2.828144 0.09664,-6.109154 0.401188,-9.843042 0.304516,-3.733789 1.002292,-7.038632 2.093331,-9.91454 1.091004,-2.87579 2.797713,-4.440823 5.120133,-4.695103 2.079406,0.179472 3.628551,1.465129 4.647439,3.856977 1.018834,2.391967 1.686158,5.24266 2.001974,8.552085 0.315757,3.309528 0.458755,6.430327 0.428996,9.362407 -0.0045,1.349585 -0.02237,2.538255 -0.05363,3.566015 -0.03131,1.027838 -0.04919,1.841139 -0.05362,2.439908 z"
     style="font-size:107.25px;text-align:center;text-anchor:middle;font-family:Roadgeek 2005 Series B"
     id="path2994" /><path
     d="m 125.58407,75.569135 c -0.076,-4.962423 -1.50598,-8.952962 -4.28994,-11.97163 -2.78402,-3.01853 -6.46622,-4.569164 -11.04661,-4.651906 -4.51339,0.08051 -8.16878,1.501554 -10.966173,4.263134 -2.797408,2.761718 -4.361448,6.381354 -4.692124,10.858921 l 9.330627,0 c 0.13628,-1.798589 0.77531,-3.241976 1.91707,-4.330165 1.14174,-1.088065 2.61194,-1.64665 4.4106,-1.675758 1.89247,0.01794 3.36267,0.679303 4.4106,1.984098 1.04788,1.304919 1.57966,3.146019 1.59532,5.523306 0.038,1.698157 -0.41337,3.557131 -1.35401,5.576928 -0.94068,2.019899 -2.59857,4.629613 -4.97365,7.829149 -5.69313,7.400191 -9.67027,14.290908 -11.931415,20.672178 -2.261163,6.38131 -3.396209,13.86189 -3.405142,22.44177 l 29.707867,0 0,-9.33063 -19.412,0 c 0.14522,-1.74055 0.36418,-3.30012 0.6569,-4.67872 0.29268,-1.37858 0.75296,-2.75047 1.38082,-4.11567 1.16855,-2.84877 2.71918,-6.02601 4.65191,-9.53172 1.93269,-3.50566 3.99275,-6.977829 6.1802,-10.416523 3.18839,-4.596007 5.31101,-8.166489 6.36789,-10.711456 1.05681,-2.54487 1.5439,-5.123303 1.46126,-7.735306 z"
     style="font-size:107.25px;text-align:center;text-anchor:middle;font-family:Roadgeek 2005 Series B"
     id="path2996" /><path
     d="m 168.21254,114.17864 0,-8.57989 -3.7537,0 0,-45.366168 -9.86688,0 -21.87871,44.400928 0,9.54513 22.62945,0 0,17.91052 9.11614,0 0,-17.91052 z m -12.86984,-8.57989 -13.51332,0 13.51332,-27.991891 z"
     style="font-size:107.25px;text-align:center;text-anchor:middle;font-family:Roadgeek 2005 Series B"
     id="path2998" /></g>
</svg>